<svg width="24" height="24" viewBox="0 0 24 24" fill="none" xmlns="http://www.w3.org/2000/svg">
<path d="M17.3783 13.7885L17.3783 13.7885L17.3778 13.7826C17.3328 13.3108 17.5119 12.8676 17.8293 12.5578L17.8294 12.5579L17.8382 12.5488C18.1135 12.2662 18.494 12.1 18.92 12.1H20.97C21.267 12.1 21.5 12.3393 21.5 12.62V14.68C21.5 14.9607 21.267 15.2 20.97 15.2H19.04C18.1806 15.2 17.4436 14.5718 17.3783 13.7885Z" fill="#104FA9" stroke="#104FA9"/>
<path d="M14.8818 14.0027L14.8819 14.0038C15.0659 16.0967 16.8959 17.7 19.04 17.7H19.4561C19.1947 19.3677 17.7465 20.65 16 20.65H6C4.06614 20.65 2.5 19.0839 2.5 17.15V10.15C2.5 8.21614 4.06614 6.64999 6 6.64999H16C17.7374 6.64999 19.1946 7.93302 19.4561 9.59999H18.92C17.8283 9.59999 16.8107 10.0321 16.0762 10.7766C15.2129 11.6301 14.7791 12.8047 14.8818 14.0027ZM7 12.4H13C13.6861 12.4 14.25 11.8361 14.25 11.15C14.25 10.4639 13.6861 9.89999 13 9.89999H7C6.31821 9.89999 5.75 10.4495 5.75 11.15C5.75 11.8505 6.31821 12.4 7 12.4Z" fill="#104FA9" stroke="#104FA9"/>
<path d="M11.34 3.35001C12.2816 3.35001 13.0971 3.64924 13.6667 4.15001H6.03C4.89043 4.15001 3.81955 4.47087 2.91454 5.02696C3.44727 4.02715 4.50867 3.35001 5.72 3.35001H11.34Z" fill="#104FA9" stroke="#104FA9"/>
</svg>
