<svg width="24" height="24" viewBox="0 0 24 24" fill="none" xmlns="http://www.w3.org/2000/svg">
<path d="M7.44692 5.64308L7.45296 5.6295L7.45818 5.61558L7.51439 5.46568C7.52206 5.4475 7.52888 5.43072 7.53457 5.41662C7.53617 5.41267 7.53763 5.40904 7.539 5.40565C7.54403 5.39317 7.54772 5.384 7.55155 5.37482C7.55676 5.36232 7.5596 5.35627 7.56051 5.35435L7.57593 5.32865L7.58914 5.298C8.15701 3.98114 8.72034 3.21698 9.34929 2.83303C9.8434 2.53138 10.4396 2.42864 11.243 2.56566L9.20062 7.32001H7.12001C6.99413 7.32001 6.86811 7.32281 6.74208 7.32906L7.4093 5.72773L7.44692 5.64308Z" fill="#8E0000" stroke="#8E0000"/>
<path d="M16.88 7.31999H11.3794L13.1689 3.16045L15.3561 4.08085L15.3561 4.08085L15.3585 4.08186C16.5576 4.57904 17.3248 5.06811 17.7775 5.60995C17.8615 5.72222 17.9284 5.81519 17.9942 5.92204L17.9941 5.92209L17.9994 5.93037C18.0718 6.04297 18.1145 6.13473 18.1369 6.21882L18.1471 6.25697L18.1631 6.29306C18.1958 6.36672 18.2118 6.41316 18.2219 6.45846L18.2256 6.47491L18.2303 6.49107C18.3147 6.77807 18.3479 7.10273 18.3186 7.46941C17.8463 7.37142 17.3666 7.31999 16.88 7.31999Z" fill="#8E0000" stroke="#8E0000"/>
<path d="M5.39791 10.1692L5.39879 10.1688C5.93353 9.93706 6.50559 9.82001 7.11999 9.82001H16.88C17.3204 9.82001 17.7425 9.88265 18.1477 9.99934C19.9431 10.5486 21.26 12.2191 21.26 14.2V16.15C21.26 16.335 21.2507 16.5227 21.2407 16.7132C21.1503 18.3769 20.6475 19.5487 19.8015 20.3111C18.9512 21.0774 17.6767 21.5 15.9 21.5H8.09999C7.87749 21.5 7.66995 21.4823 7.45466 21.4542L7.43885 21.4521L7.42294 21.4511C5.9139 21.3514 4.82302 20.9036 4.08328 20.1649C3.34343 19.4262 2.89323 18.335 2.7888 16.8255L2.78784 16.8117L2.78613 16.798C2.7576 16.5697 2.73999 16.3619 2.73999 16.15V14.2C2.73999 12.3974 3.83401 10.8433 5.39791 10.1692ZM9.49999 17.25H14.5C15.1861 17.25 15.75 16.6862 15.75 16C15.75 15.3139 15.1861 14.75 14.5 14.75H9.49999C8.81385 14.75 8.24999 15.3139 8.24999 16C8.24999 16.6862 8.81385 17.25 9.49999 17.25Z" fill="#8E0000" stroke="#8E0000"/>
</svg>
