<svg width="24" height="24" viewBox="0 0 24 24" fill="none" xmlns="http://www.w3.org/2000/svg">
<path d="M7.44692 5.64308L7.45296 5.6295L7.45818 5.61558L7.51439 5.46568C7.52206 5.4475 7.52888 5.43072 7.53457 5.41662C7.53617 5.41267 7.53763 5.40904 7.539 5.40565C7.54403 5.39317 7.54772 5.384 7.55155 5.37482C7.55676 5.36232 7.5596 5.35627 7.56051 5.35435L7.57593 5.32865L7.58914 5.298C8.15701 3.98114 8.72034 3.21698 9.34929 2.83303C9.8434 2.53138 10.4396 2.42864 11.243 2.56566L9.20062 7.32001H7.12001C6.99413 7.32001 6.86811 7.32281 6.74208 7.32906L7.4093 5.72773L7.44692 5.64308Z" fill="#008E06" stroke="#008E06"/>
<path d="M16.88 7.31999H11.3794L13.1689 3.16045L15.3561 4.08085L15.3561 4.08085L15.3585 4.08186C16.5576 4.57904 17.3248 5.06811 17.7775 5.60995C17.8615 5.72222 17.9284 5.81519 17.9942 5.92204L17.9941 5.92209L17.9994 5.93037C18.0718 6.04297 18.1145 6.13473 18.1369 6.21882L18.1471 6.25697L18.1631 6.29306C18.1958 6.36672 18.2118 6.41316 18.2219 6.45846L18.2256 6.47491L18.2303 6.49107C18.3147 6.77807 18.3479 7.10273 18.3186 7.46941C17.8463 7.37142 17.3666 7.31999 16.88 7.31999Z" fill="#008E06" stroke="#008E06"/>
<path d="M5.39792 10.1692L5.39881 10.1688C5.93355 9.93706 6.50561 9.82001 7.12001 9.82001H16.88C17.3204 9.82001 17.7425 9.88265 18.1477 9.99934C19.9431 10.5486 21.26 12.2191 21.26 14.2V16.15C21.26 16.335 21.2508 16.5227 21.2407 16.7132C21.1504 18.3769 20.6475 19.5487 19.8015 20.3111C18.9512 21.0774 17.6768 21.5 15.9 21.5H8.10001C7.8775 21.5 7.66997 21.4823 7.45467 21.4542L7.43886 21.4521L7.42295 21.4511C5.91392 21.3514 4.82303 20.9036 4.0833 20.1649C3.34344 19.4262 2.89324 18.335 2.78881 16.8255L2.78786 16.8117L2.78614 16.798C2.75761 16.5697 2.74001 16.3619 2.74001 16.15V14.2C2.74001 12.3974 3.83402 10.8433 5.39792 10.1692ZM13.25 18V16.69H14.5C15.1818 16.69 15.75 16.1405 15.75 15.44C15.75 14.7539 15.1861 14.19 14.5 14.19H13.25V13C13.25 12.3139 12.6861 11.75 12 11.75C11.3139 11.75 10.75 12.3139 10.75 13V14.19H9.50001C8.81386 14.19 8.25001 14.7539 8.25001 15.44C8.25001 16.1405 8.81822 16.69 9.50001 16.69H10.75V18C10.75 18.6861 11.3139 19.25 12 19.25C12.6861 19.25 13.25 18.6861 13.25 18Z" fill="#008E06" stroke="#008E06"/>
</svg>
